<svg xmlns="http://www.w3.org/2000/svg" viewBox="0 0 64 64" role="img" aria-labelledby="favicon-title">
  <title id="favicon-title">The USA favicon</title>
  <defs>
    <clipPath id="flag-clip">
      <rect x="6" y="6" width="52" height="52" rx="14" />
    </clipPath>
  </defs>

  <rect x="4" y="4" width="56" height="56" rx="16" fill="#0A1D43" />
  <rect x="6" y="6" width="52" height="52" rx="14" fill="#FFFFFF" />

  <g clip-path="url(#flag-clip)">
    <rect x="6" y="6" width="52" height="52" fill="#FFFFFF" />
    <rect x="6" y="6" width="52" height="4" fill="#B22234" />
    <rect x="6" y="14" width="52" height="4" fill="#B22234" />
    <rect x="6" y="22" width="52" height="4" fill="#B22234" />
    <rect x="6" y="30" width="52" height="4" fill="#B22234" />
    <rect x="6" y="38" width="52" height="4" fill="#B22234" />
    <rect x="6" y="46" width="52" height="4" fill="#B22234" />
    <rect x="6" y="54" width="52" height="4" fill="#B22234" />
    <rect x="6" y="6" width="25" height="28" fill="#002868" />

    <g fill="#FFFFFF">
      <circle cx="11" cy="11" r="1.1" />
      <circle cx="17" cy="11" r="1.1" />
      <circle cx="23" cy="11" r="1.1" />
      <circle cx="14" cy="16" r="1.1" />
      <circle cx="20" cy="16" r="1.1" />
      <circle cx="26" cy="16" r="1.1" />
      <circle cx="11" cy="21" r="1.1" />
      <circle cx="17" cy="21" r="1.1" />
      <circle cx="23" cy="21" r="1.1" />
      <circle cx="14" cy="26" r="1.1" />
      <circle cx="20" cy="26" r="1.1" />
      <circle cx="26" cy="26" r="1.1" />
    </g>
  </g>

  <rect x="6.5" y="6.5" width="51" height="51" rx="13.5" fill="none" stroke="#FFFFFF" stroke-opacity="0.35" stroke-width="1.5" />
</svg>
